<svg xmlns="http://www.w3.org/2000/svg" width="32" height="32" viewBox="0 0 32 32">
    <g fill="#6C4527" fill-rule="nonzero">
        <path d="M16 5.217a.698.698 0 0 0 .696-.695v-.348A.698.698 0 0 0 16 3.478a.698.698 0 0 0-.696.696v.348c0 .382.313.695.696.695zM16 26.783a.698.698 0 0 0-.696.695v.348c0 .383.313.696.696.696a.698.698 0 0 0 .696-.696v-.348a.698.698 0 0 0-.696-.695zM4.522 15.304h-.348a.698.698 0 0 0-.696.696c0 .383.313.696.696.696h.348A.698.698 0 0 0 5.217 16a.698.698 0 0 0-.695-.696zM27.826 15.304h-.348a.698.698 0 0 0-.695.696c0 .383.313.696.695.696h.348a.698.698 0 0 0 .696-.696.698.698 0 0 0-.696-.696zM8.14 7.165a.672.672 0 0 0-.975 0 .672.672 0 0 0 0 .974l.244.244c.139.139.313.208.487.208s.347-.07.487-.208a.672.672 0 0 0 0-.974l-.244-.244zM7.409 23.617l-.244.244a.672.672 0 0 0 0 .974c.14.139.313.208.487.208s.348-.07.487-.208l.244-.244a.672.672 0 0 0 0-.974.672.672 0 0 0-.974 0zM23.86 7.165l-.243.244a.672.672 0 0 0 0 .974c.14.139.313.208.487.208s.348-.07.487-.208l.244-.244a.672.672 0 0 0 0-.974.672.672 0 0 0-.974 0zM16.696 15.722v-6.33A.698.698 0 0 0 16 8.695a.698.698 0 0 0-.696.695V16c0 .174.07.348.209.487l7.617 7.617c.14.14.313.209.487.209s.348-.07.487-.209a.672.672 0 0 0 0-.974l-7.408-7.408z"/>
        <path d="M16 0C7.165 0 0 7.165 0 16s7.165 16 16 16 16-7.165 16-16S24.835 0 16 0zm0 30.609c-8.07 0-14.609-6.54-14.609-14.609C1.391 7.93 7.931 1.391 16 1.391c8.07 0 14.609 6.54 14.609 14.609 0 8.07-6.54 14.609-14.609 14.609z"/>
    </g>
</svg>
