<svg xmlns="http://www.w3.org/2000/svg" width="41" height="41" viewBox="0 0 41 41">
    <g fill="none" fill-rule="evenodd" stroke="#6C4527" stroke-linecap="round" stroke-linejoin="round" stroke-width=".75">
        <path d="M17.895 31.609c.12-5.68-.105-11.021-.092-11.355.018-.475-3.04.196-3.417-.195-.377-.39-.594-3.364-.094-3.62.5-.257 2.755.208 3.23-.098.477-.306-2.065-10.215 8.362-8.025.285.147-.024 3.462-.19 3.719-.166.257-2.28-.33-3.42.587-1.14.918-.665 3.45-.428 3.621.238.171 3.622.037 3.848.294.225.257.261 3.474 0 3.719-.261.245-3.735-.446-4.085-.196-.288.206.758 11.097.459 11.529-.3.431-1.387.394-2.074.411"/>
        <path d="M20.712 40c11.232-.312 19.941-10.11 19.25-20.886C39.286 8.594 30 .66 19.877 1.011 9.614 1.367.88 10.175 1.001 20.753c.286 16.532 15.767 19.4 16.448 19.2"/>
    </g>
</svg>
