<svg xmlns="http://www.w3.org/2000/svg" width="42" height="41" viewBox="0 0 42 41">
    <g fill="none" fill-rule="evenodd" stroke="#6C4527" stroke-linecap="round" stroke-linejoin="round" stroke-width=".75">
        <path d="M30.548 19.755c.064 2.681.21 6.628-.114 7.743-.325 1.114-1.47 2.171-2.444 2.606-.974.434-13.94.189-14.627 0-.688-.19-1.719-1.643-1.948-2.172-.23-.529-.115-13.447.153-14.523.267-1.076 1.203-1.7 2.062-2.077.86-.378 10.108-.227 11.8-.152 1.694.076 3.196.907 3.324 2.153.127 1.247-.752 1.75-1.796 1.662-1.043-.088-1.74-1.065-1.144-1.81.597-.745 3.932-.928 4.39.035.459.963.478 3.289-.152 3.854s-4.755-.205-5.387.036c-.633.24 2.503 2.663.455 6.382-1.342 2.14-4.277 3.14-6.612 1.926-2.56-1.332-2.953-4.572-2.071-6.65.11-.259 1.155-2.66 3.609-2.99 1.441-.192 4.2.426 3.246 1.276-.955.85-8.708-.208-10.579.17"/>
        <path d="M15.477 2.11C4.505 5.505-1.403 17.214 2.21 27.255c3.528 9.804 14.828 14.776 24.7 11.648 10.006-3.17 16.208-13.944 13.21-23.956C35.34-.673 19.319.877 18.702 1.255"/>
    </g>
</svg>
