<svg xmlns="http://www.w3.org/2000/svg" width="41" height="41" viewBox="0 0 41 41">
    <g fill="none" fill-rule="evenodd" stroke="#6C4527" stroke-linecap="round" stroke-linejoin="round" stroke-width=".75">
        <path d="M17.109 26.578c-.243.041-1.864-.013-3.277-1.148-1.389-1.115-1.614-2.533-1.513-2.645.101-.113 2.337.219 2.37.1.068-.244-1.501-.869-2.572-2.047-1.016-1.12-1.38-3.138-1.21-3.344.17-.206 2.193 1.006 2.27.898.17-.241-1.313-1.25-1.816-2.995-.42-1.456.139-3.88.504-3.943.366-.063 2.226 2.579 4.538 3.843 2.263 1.238 5.137 2.234 5.597 1.747.46-.486-.712-3.519 2.218-5.39 3.082-1.798 5.969.673 6.303.748.334.075 2.723-1.279 2.824-1.098.1.181-1.576 2.178-1.362 2.396.215.218 2.017-.468 2.017-.2 0 .269-1.916 1.523-2.067 2.047-.152.524.85 4.343-2.042 8.51C23.26 32.27 12.647 32.495 10 28.377"/>
        <path d="M1.052 21.209c.61 11.221 10.628 19.68 21.37 18.716 10.488-.942 18.163-10.427 17.543-20.54C39.336 9.132 30.307.623 19.747 1.013 3.246 1.718.795 17.269 1.013 17.945"/>
    </g>
</svg>
