<svg xmlns="http://www.w3.org/2000/svg" width="16" height="32" viewBox="0 0 16 32">
    <g fill="#BC9776" fill-rule="evenodd">
        <path d="M2.77 10.87c.19.063.338.172.528.313.38.28.899.665 1.848.665.949 0 1.468-.384 1.848-.665.313-.232.502-.372.955-.372.454 0 .643.14.956.372.38.28.9.665 1.848.665.949 0 1.469-.384 1.849-.665.19-.14.337-.25.527-.312l.707 1.385c.31.61.573 1.702.573 2.385v15.143a.703.703 0 0 1-.705.698H2.196a.703.703 0 0 1-.706-.698V14.641c0-.683.263-1.776.574-2.385l.706-1.385zm2.644-5.185a.735.735 0 0 0 .08-.332V3.937h4.912v1.416c0 .115.027.23.08.332l1.969 3.863a3.581 3.581 0 0 0-.746.453c-.313.232-.502.372-.956.372-.453 0-.642-.14-.956-.372-.38-.28-.9-.665-1.848-.665-.948 0-1.468.384-1.848.665-.313.232-.502.372-.955.372-.454 0-.643-.14-.956-.372-.197-.145-.432-.32-.745-.453l1.969-3.863zm-.645-3.223h6.362v-.679H4.769v.679zm10.397 9.129l-3.27-6.414v-1.24a.742.742 0 0 0 .725-.738V1.046a.742.742 0 0 0-.745-.738H4.023c-.41 0-.745.33-.745.738v2.153c0 .4.324.727.725.738v1.24l-3.27 6.414C.323 12.398 0 13.737 0 14.64v15.143c0 1.198.985 2.173 2.196 2.173h11.508c1.21 0 2.196-.975 2.196-2.173V14.641c0-.904-.323-2.243-.734-3.05z"/>
        <path d="M6.924 6.09h2.051c.411 0 .745-.33.745-.737a.742.742 0 0 0-.745-.738h-2.05c-.412 0-.746.331-.746.738s.334.738.745.738"/>
    </g>
</svg>
