<svg xmlns="http://www.w3.org/2000/svg" width="28" height="24" viewBox="0 0 28 24">
    <path fill="#BC9776" fill-rule="evenodd" d="M26.59 10.688c-.17.71-.926.886-.948.894-1.179.359-1.375 1.491-1.532 2.404-.186 1.076-.356 1.76-1.142 2.15-.849.339-1.362.07-2.192-.432-.708-.428-1.587-.96-2.771-.682-1.3.216-1.555 1.482-1.76 2.5-.306 1.523-.58 2.464-2.27 2.548-1.627-.08-1.91-1.017-2.237-2.534-.22-1.024-.494-2.296-1.79-2.514-1.184-.279-2.064.253-2.772.682-.563.34-.98.573-1.455.582-.03 0-.06 0-.09-.002h-.02a1.75 1.75 0 0 1-.498-.102 2.57 2.57 0 0 1-.128-.046c-.817-.405-.97-1.036-1.149-2.028-.155-.856-.348-1.92-1.431-2.483-.004-.002-.812-.288-.966-1.098-.138-.719-.018-2.37 2.854-5.449l.009-.01.005-.005c2.022-2.308 5.727-3.74 9.668-3.74 4.36 0 7.784 1.317 9.643 3.71l.013.015.02.024c.194.212 2.28 3.07.457 4.848-1.403 1.368-4.4 2.364-8.075 2.607-3.359.221-6.664-.23-8.225-1.123-1.623-.93-2.517-2.126-2.517-3.37 0-1.243.894-2.44 2.517-3.37 2.85-1.63 7.486-1.63 10.336 0 .961.551 1.49 1.244 1.49 1.952 0 .707-.529 1.4-1.49 1.95-1.727.989-4.644.99-6.371 0-.53-.303-.834-.683-.834-1.043 0-.359.304-.739.834-1.042 1.013-.58 2.841-.722 3.77-.041.188.137.3.324.287.475-.01.102-.085.19-.226.258-.315.155-1.208.242-1.441-.198a.678.678 0 0 0-.907-.281.655.655 0 0 0-.286.892c.639 1.206 2.319 1.22 3.236.77.562-.276.914-.759.964-1.325.056-.616-.252-1.233-.823-1.652-1.443-1.056-3.85-.843-5.251-.04-.97.554-1.503 1.33-1.503 2.185 0 .854.534 1.63 1.503 2.185 2.166 1.24 5.56 1.24 7.725 0 1.392-.797 2.16-1.896 2.16-3.093 0-1.198-.767-2.297-2.16-3.094-1.572-.9-3.648-1.395-5.845-1.395-2.197 0-4.273.495-5.845 1.395l-.04.024.04-.024-.046.027c-2.025 1.174-3.14 2.765-3.14 4.485 0 1.734 1.132 3.336 3.186 4.512 1.504.861 4.214 1.36 7.2 1.36.589 0 1.189-.02 1.793-.06 4.056-.268 7.317-1.362 8.947-3.002.523-.526 1.009-1.235 1.186-2.136.455 1 .42 1.618.333 1.98zM5.633 16.284zm-.123-.01zm-.397-.092zm8.862 6.482c-6.019 0-10.945-3.215-11.213-7.235l.017.047c.237.702.672 1.39 1.63 1.855a.724.724 0 0 0 .04.018c1.537.627 2.588-.009 3.433-.52.694-.42 1.15-.668 1.769-.517.02.005.039.009.059.012.367.056.499.496.712 1.485.297 1.38.745 3.465 3.525 3.584h.059c2.858-.125 3.28-2.225 3.56-3.614.21-1.047.337-1.404.675-1.455a.692.692 0 0 0 .061-.012c.618-.152 1.075.098 1.769.518.844.511 1.895 1.147 3.433.52a.696.696 0 0 0 .04-.018c.982-.477 1.417-1.251 1.65-2.016-.181 4.073-5.144 7.348-11.219 7.348zM2.762 15.428l.002.005-.002-.004zm25.058-6.37c-.393-1.352-1.453-2.984-3.152-4.851C22.022 1.407 18.75 0 13.975 0 9.59 0 5.693 1.477 3.077 4.185c-4.29 4.422-3.157 7.095-2.13 8.06.14.134.295.252.458.354v2.486c0 2.422 1.339 4.684 3.77 6.367 2.36 1.635 5.484 2.535 8.8 2.535 3.315 0 6.44-.9 8.8-2.535 2.431-1.683 3.77-3.945 3.77-6.367v-2.441l.006-.003c.356-.185.668-.442.902-.743.395-.509.78-1.415.367-2.84z"/>
</svg>
