<svg xmlns="http://www.w3.org/2000/svg" width="32" height="21" viewBox="0 0 32 21">
    <g fill="#BC9776" fill-rule="evenodd">
        <path d="M18.09 13.507c-.69.44-1.284.819-2.528.819s-1.84-.38-2.529-.82c-.809-.515-1.725-1.099-3.49-1.099-1.767 0-2.683.585-3.49 1.1-.689.44-1.283.819-2.527.819-.946 0-1.715-.783-1.715-1.745 0-.962.77-1.744 1.718-1.744a.91.91 0 0 0 .848-.597c1.64-4.442 6.135-7.426 11.185-7.426 5.05 0 9.544 2.984 11.184 7.426a.91.91 0 0 0 .848.597c.948 0 1.719.782 1.719 1.744s-.77 1.745-1.716 1.745c-1.244 0-1.838-.38-2.526-.819-.808-.515-1.724-1.1-3.49-1.1-1.765 0-2.682.584-3.491 1.1M7.016 15.063c.688-.44 1.283-.818 2.526-.818 1.244 0 1.84.379 2.528.818.81.516 1.726 1.1 3.492 1.1 1.765 0 2.682-.584 3.49-1.1.69-.439 1.285-.818 2.529-.818s1.838.379 2.526.818c.638.407 1.356.865 2.521 1.034l-.553 2.493H5.048l-.553-2.493c1.165-.169 1.883-.627 2.521-1.034m21.212-6.006c-1.004-2.374-2.72-4.392-4.97-5.839A14.183 14.183 0 0 0 15.563.976c-2.758 0-5.42.775-7.698 2.242C5.616 4.665 3.9 6.683 2.894 9.057 1.239 9.364 0 10.862 0 12.581c0 1.64 1.075 3.05 2.628 3.463l.812 3.666a.904.904 0 0 0 .883.717H26.8c.426 0 .789-.295.883-.717l.812-3.666c1.553-.414 2.628-1.823 2.628-3.463 0-1.719-1.238-3.217-2.895-3.524"/>
        <path d="M15.562 5.54c-.5 0-.906.412-.906.919v2.02c0 .507.406.919.906.919.499 0 .905-.412.905-.92v-2.02a.913.913 0 0 0-.905-.918M20.065 5.601a.897.897 0 0 0-1.273-.14.93.93 0 0 0-.138 1.291L19.9 8.327a.896.896 0 0 0 1.272.14.93.93 0 0 0 .139-1.291L20.065 5.6zM12.33 5.46a.897.897 0 0 0-1.272.141L9.811 7.176a.923.923 0 0 0-.194.675.916.916 0 0 0 .333.617.899.899 0 0 0 1.272-.141l1.247-1.575a.93.93 0 0 0-.138-1.291"/>
    </g>
</svg>
