<svg xmlns="http://www.w3.org/2000/svg" width="28" height="27" viewBox="0 0 28 27">
    <g fill="#BC9776" fill-rule="evenodd">
        <path d="M19.098 1.645c.203 0 .407-.08.562-.24l.007-.007a.836.836 0 0 0 0-1.158.779.779 0 0 0-1.124 0l-.007.007a.836.836 0 0 0 0 1.158.78.78 0 0 0 .562.24M4.038 18.7c.464-.47.73-1.122.73-1.79v-.805c0-.687.54-1.257 1.204-1.27.32-.007.627.123.863.361.247.25.389.596.389.95v2.038c0 1.567 1.234 2.865 2.75 2.895a2.71 2.71 0 0 0 2-.826 3.019 3.019 0 0 0 .862-2.11v-2.215c0-.234.094-.464.258-.63a.776.776 0 0 1 .553-.237h.011c.436.009.79.383.79.834v1.01c0 1.566 1.234 2.864 2.751 2.894a2.704 2.704 0 0 0 2-.826 3.019 3.019 0 0 0 .861-2.11v-.935c0-.234.094-.464.258-.63a.788.788 0 0 1 .564-.237c.436.009.79.383.79.834v2.725c0 1.33 1.049 2.434 2.338 2.46h.033c1.201-.024 2.194-.984 2.324-2.191v4.152c0 .42-.16.815-.449 1.113-.289.298-.673.462-1.08.462H3.108c-.844 0-1.53-.707-1.53-1.575v-3.785c.244.09.502.14.76.146a2.31 2.31 0 0 0 1.7-.702m20.765-3.14v3.06c0 .445-.348.818-.776.834-.429-.016-.776-.389-.776-.834v-2.724c0-1.331-1.05-2.434-2.338-2.46a2.315 2.315 0 0 0-1.7.702 2.562 2.562 0 0 0-.731 1.79v.935c0 .354-.142.7-.39.95a1.19 1.19 0 0 1-.862.36c-.663-.012-1.203-.582-1.203-1.269v-1.009c0-1.33-1.05-2.434-2.339-2.459a2.305 2.305 0 0 0-1.699.702 2.561 2.561 0 0 0-.731 1.79v2.215c0 .354-.142.7-.39.95a1.19 1.19 0 0 1-.862.36c-.663-.012-1.203-.582-1.203-1.269v-2.038c0-.788-.314-1.557-.862-2.11a2.714 2.714 0 0 0-1.999-.826c-1.517.03-2.751 1.328-2.751 2.895v.805a.901.901 0 0 1-.259.63.769.769 0 0 1-.563.237c-.436-.009-.79-.383-.79-.835V11.64c0-.868.685-1.575 1.529-1.575h21.73c.843 0 1.529.707 1.529 1.575v1.613c-.93.355-1.564 1.28-1.564 2.308M9.35 6.204c0-1.232.973-2.235 2.17-2.235s2.17 1.003 2.17 2.235-.973 2.235-2.17 2.235-2.17-1.003-2.17-2.235m7.744-.127a.82.82 0 0 0-.231-.575.775.775 0 0 0-1.116 0L15.264 6a3.923 3.923 0 0 0-.214-1.097l.053-.053c.966-.988 2.632-1.116 3.492-1.11.003.88-.128 2.584-1.104 3.584-.618.633-1.502.915-2.284 1.035l1.657-1.707a.82.82 0 0 0 .231-.575m9.94 3.3a3.042 3.042 0 0 0-2.197-.938H18.64c1.828-1.92 1.53-5.185 1.49-5.55-.036-.385-.345-.7-.711-.731a8.766 8.766 0 0 0-2.157.033c-1.268.178-2.3.619-3.069 1.31a3.693 3.693 0 0 0-2.673-1.157c-2.067 0-3.749 1.731-3.749 3.86 0 .807.244 1.584.695 2.235h-5.36C1.395 8.439 0 9.875 0 11.639v11.402c0 1.765 1.394 3.2 3.108 3.2h21.73c1.713 0 3.107-1.435 3.107-3.2V11.639c0-.853-.323-1.657-.91-2.262"/>
    </g>
</svg>
