<svg xmlns="http://www.w3.org/2000/svg" width="31" height="30" viewBox="0 0 31 30">
    <g fill="#46C2C6" fill-rule="evenodd">
        <path d="M25.561 17.803c-.237.249-.348.596-.3.94l.541 3.885-3.803.678c-.337.06-.627.274-.787.58l-1.81 3.466-3.47-1.722a1.091 1.091 0 0 0-.971 0l-3.47 1.722-1.81-3.465c-.16-.307-.45-.521-.786-.581l-3.803-.678.54-3.885a1.136 1.136 0 0 0-.3-.94l-2.684-2.82 2.684-2.82c.237-.249.348-.596.3-.94l-.54-3.884 3.803-.678c.336-.06.627-.274.787-.58l1.81-3.467 3.468 1.723c.307.153.666.153.973 0l3.469-1.723 1.81 3.466c.16.307.45.521.787.581l3.803.678-.541 3.885c-.048.343.063.69.3.94l2.685 2.819-2.685 2.82zm5.021-3.603l-3.053-3.206.615-4.418c.084-.601-.316-1.161-.905-1.266l-4.325-.77L20.856.598a1.099 1.099 0 0 0-1.464-.484l-3.945 1.96-3.945-1.96a1.099 1.099 0 0 0-1.465.484L7.98 4.54l-4.325.77a1.123 1.123 0 0 0-.905 1.266l.615 4.418L.31 14.2a1.138 1.138 0 0 0 0 1.565l3.053 3.207-.615 4.418c-.083.601.317 1.16.905 1.266l4.325.77 2.058 3.942c.28.536.928.75 1.465.483l3.945-1.959 3.945 1.96c.156.077.322.114.485.114.398 0 .78-.218.98-.598l2.057-3.941 4.325-.771c.588-.105.989-.665.905-1.266l-.615-4.418 3.053-3.207a1.138 1.138 0 0 0 0-1.565z"/>
        <path d="M13.681 8.8c.502 0 .91.415.91.925 0 .509-.409.923-.91.923a.918.918 0 0 1-.91-.923c0-.51.408-.925.91-.925m0 3.648c1.478 0 2.68-1.222 2.68-2.723C16.362 8.222 15.16 7 13.682 7 12.203 7 11 8.222 11 9.725c0 1.502 1.203 2.723 2.681 2.723M20.955 9.264a.875.875 0 0 0-1.253 0l-9.443 9.595a.91.91 0 0 0 0 1.272.876.876 0 0 0 1.253 0l9.443-9.595a.91.91 0 0 0 0-1.272M17.68 20.648a.918.918 0 0 1-.909-.924c0-.51.408-.924.91-.924.501 0 .91.415.91.924 0 .51-.409.924-.91.924m0-3.648C16.201 17 15 18.222 15 19.724c0 1.502 1.203 2.724 2.68 2.724 1.479 0 2.682-1.222 2.682-2.724 0-1.502-1.203-2.724-2.682-2.724"/>
    </g>
</svg>
