<svg xmlns="http://www.w3.org/2000/svg" width="28" height="26" viewBox="0 0 28 26">
    <path fill="#BC9776" fill-rule="evenodd" d="M1.765 9.302c0 .613.5 1.112 1.113 1.112h1.549v-6.13h-1.55c-.613 0-1.112.499-1.112 1.112v3.906zm4.373 4.99c0 .519.04 1.028.117 1.526a6.79 6.79 0 0 0 2.109-.738 8.645 8.645 0 0 1 8.265 0 6.938 6.938 0 0 0 6.6.001 8.627 8.627 0 0 1 3.057-.984 9.92 9.92 0 0 0-2.842-6.773.83.83 0 0 1-.013-1.15l1.767-1.89H6.138v10.008zm10.075 10.009c5.036 0 9.22-3.69 9.96-8.49a6.785 6.785 0 0 0-2.11.738 8.64 8.64 0 0 1-8.266 0 6.906 6.906 0 0 0-6.6 0 8.507 8.507 0 0 1-2.544.905 10.087 10.087 0 0 0 9.56 6.847zm4.72-21.697h-9.44V1.68h9.44v.924zm-18.055 0h6.905V.84c0-.464.383-.84.855-.84h11.15c.472 0 .855.376.855.84v1.764h4.5c.744 0 1.133.87.631 1.408l-2.557 2.737a11.563 11.563 0 0 1 2.782 7.543c0 6.44-5.283 11.689-11.786 11.689-6.505 0-11.786-5.25-11.786-11.689v-2.197h-1.55c-1.556 0-2.823-1.253-2.823-2.793V5.397c0-1.54 1.267-2.793 2.824-2.793z"/>
</svg>
