<svg xmlns="http://www.w3.org/2000/svg" width="22" height="31" viewBox="0 0 22 31">
    <path fill="#BC9776" fill-rule="evenodd" d="M20.504 18.14a3.246 3.246 0 0 0-1.835-.552c-1.12 0-1.789.502-2.327.905-.477.358-.853.64-1.523.64-.692 0-1.097-.294-1.61-.667-.565-.412-1.207-.878-2.24-.878-1.04 0-1.695.47-2.273.885-.514.369-.92.66-1.577.66-.657 0-1.063-.291-1.577-.66-.578-.415-1.234-.885-2.272-.885-.793 0-1.355.274-1.83.587a11.905 11.905 0 0 1-.165-1.916c0-3.541 1.989-6.285 5.456-7.529l.04-.016c1.19.686 2.603.81 3.467.81.352 0 .612-.02.731-.032.12.012.38.032.732.032.864 0 2.274-.124 3.464-.809 3.495 1.237 5.498 3.984 5.498 7.544 0 .592-.053 1.222-.16 1.88m-3.591 8.09c-1.811 2.26-3.921 3.506-5.942 3.506-2.04 0-4.165-1.265-5.987-3.562-1.464-1.846-2.647-4.275-3.257-6.646l.056-.04c.487-.355.871-.634 1.488-.634.625 0 1.022.285 1.525.645.588.422 1.254.9 2.324.9 1.07 0 1.736-.478 2.324-.9.503-.36.9-.645 1.525-.645.617 0 1.001.28 1.488.633.558.407 1.254.913 2.363.913 1.098 0 1.76-.497 2.293-.897.484-.363.866-.65 1.562-.65.686 0 1.068.283 1.547.642-.613 2.407-1.822 4.877-3.31 6.735M5.702 3.655c.583.006 1.541.083 2.41.453a4.198 4.198 0 0 0-.053.618c-.014 1.41.725 2.65 1.41 3.494-.862-.085-1.933-.343-2.659-1.05-1.005-.978-1.121-2.655-1.108-3.515m3.742.302l.001-.004c.286-1.068 1.057-1.978 1.534-2.462.487.468 1.275 1.346 1.588 2.375a2.933 2.933 0 0 1 .134.887c-.01.986-.556 1.899-1.093 2.56V5.96a.635.635 0 0 0-.638-.632.635.635 0 0 0-.637.632V7.27c-.507-.662-1.008-1.562-.999-2.531.003-.267.043-.528.11-.781m4.476.114c.845-.338 1.756-.41 2.319-.416.014.86-.102 2.536-1.108 3.515-.715.696-1.764.957-2.618 1.046.695-.832 1.45-2.053 1.463-3.45a3.981 3.981 0 0 0-.056-.695m8.02 12.188c0-2.125-.602-3.989-1.79-5.54-.954-1.245-2.28-2.247-3.866-2.926 1.455-1.72 1.238-4.388 1.195-4.798a.637.637 0 0 0-.576-.584c-.08-.008-1.762-.157-3.363.448-.667-1.455-1.892-2.493-2.149-2.7a.639.639 0 0 0-.842-.003c-.155.13-1.404 1.203-2.072 2.732-1.533-.61-3.138-.503-3.416-.48a.64.64 0 0 0-.599.588c-.043.41-.26 3.077 1.195 4.797-1.6.686-2.937 1.7-3.893 2.962C.593 12.3 0 14.15 0 16.26c0 .817.092 1.692.27 2.606.561 2.876 1.914 5.825 3.71 8.09.976 1.23 2.037 2.201 3.154 2.887C8.384 30.611 9.675 31 10.97 31c2.453 0 4.853-1.378 6.94-3.984 1.786-2.23 3.146-5.147 3.73-8.006.198-.967.299-1.891.299-2.751M10.874 4.492a.637.637 0 0 0 .773-.461l.003-.014a.639.639 0 0 0-1.238-.306l-.003.015a.632.632 0 0 0 .465.766m5.708 6.838a.635.635 0 0 0-.638.633v.862c0 .35.286.632.638.632a.635.635 0 0 0 .638-.632v-.862a.635.635 0 0 0-.638-.633m-3.795-1.139a.635.635 0 0 0-.638.633v.862c0 .35.286.633.638.633a.635.635 0 0 0 .638-.633v-.862a.635.635 0 0 0-.638-.633m-3.795 1.14a.635.635 0 0 0-.637.632v.862c0 .35.285.632.637.632a.635.635 0 0 0 .638-.632v-.862a.635.635 0 0 0-.638-.633m-3.794-1.139a.635.635 0 0 0-.638.633v.862c0 .35.286.633.638.633a.635.635 0 0 0 .638-.633v-.862a.635.635 0 0 0-.638-.633m12.723 5.317v.861c0 .35.286.633.638.633a.635.635 0 0 0 .638-.633v-.861a.635.635 0 0 0-.638-.633.635.635 0 0 0-.638.633m-3.157-1.772a.635.635 0 0 0-.638.633v.862c0 .35.286.632.638.632a.635.635 0 0 0 .638-.632v-.862a.635.635 0 0 0-.638-.633m-3.795 1.139a.635.635 0 0 0-.637.633v.861c0 .35.285.633.637.633a.635.635 0 0 0 .638-.633v-.861a.635.635 0 0 0-.638-.633m-3.794-1.139a.635.635 0 0 0-.638.633v.862c0 .35.286.632.638.632a.635.635 0 0 0 .638-.632v-.862a.635.635 0 0 0-.638-.633M3.38 14.875a.635.635 0 0 0-.638.633v.861c0 .35.286.633.638.633a.635.635 0 0 0 .638-.633v-.861a.635.635 0 0 0-.638-.633m1.708 6.745l-.006-.012a.638.638 0 0 0-1.128.592l.005.009a.634.634 0 0 0 .859.267.633.633 0 0 0 .27-.856m4.892 5.473c-1.417-.774-2.785-2.117-3.955-3.883a.64.64 0 0 0-.884-.181.63.63 0 0 0-.182.876c1.284 1.938 2.807 3.424 4.406 4.296a.638.638 0 0 0 .866-.249.63.63 0 0 0-.251-.86"/>
</svg>
