<svg xmlns="http://www.w3.org/2000/svg" width="28" height="21" viewBox="0 0 28 21">
    <path fill="#BC9776" fill-rule="evenodd" d="M26.857 12.958l-8.287 4.223c.38-1.267.031-2.549-.035-2.77a.579.579 0 0 0-.696-.397c-.19.046-1.378.36-2.297 1.206v-1.71l8.694-4.429a.554.554 0 0 0 .244-.754.577.577 0 0 0-.77-.239l-8.168 4.16V9.324l11.315-5.765v9.4zm-9.602 4.414c-.402.687-1.164 1.095-1.688 1.307a4.73 4.73 0 0 1-.025-.201v-.848c.039-.348.133-.71.324-1.036.4-.681 1.162-1.09 1.687-1.304.078.55.102 1.4-.298 2.082zM14.87 8.405L2.4 6.652l10.618-5.46 12.567 1.753-10.715 5.46zm-.47 7.043c-.92-.858-2.118-1.177-2.317-1.225a.579.579 0 0 0-.697.396c-.08.265-.568 2.058.288 3.519a3.5 3.5 0 0 0 .385.533L1.143 17.137V11.79l9.209 1.278a.568.568 0 0 0 .646-.476.562.562 0 0 0-.486-.632l-9.37-1.3V7.606L14.4 9.469v5.98zm-.046 3.438c-.526-.214-1.29-.623-1.69-1.305-.399-.683-.375-1.531-.297-2.083.526.214 1.287.623 1.687 1.305.198.338.293.715.328 1.076-.006.2 0 .39.014.567-.008.16-.023.308-.042.44zM27.725 2.158a.577.577 0 0 0-.216-.075L12.996.059a.583.583 0 0 0-.346.059L.306 6.465A.556.556 0 0 0 0 6.96v10.662c0 .278.209.514.49.554l14.4 2.023a.583.583 0 0 0 .345-.057l12.457-6.348a.558.558 0 0 0 .308-.496V2.637a.557.557 0 0 0-.275-.479z"/>
</svg>
