<svg xmlns="http://www.w3.org/2000/svg" width="28" height="17" viewBox="0 0 28 17">
    <path fill="none" fill-rule="evenodd" stroke="#6C4527" stroke-linecap="round" stroke-linejoin="round" stroke-width=".75" d="M9.696 2.143c-.058-.428 1.254-.898 2.43-1.076 2.14-.324 3.933.605 4.072 1.144.14.538-.147 5.852.723 5.92.87.067 3.367-5.685 3.941-6.19.575-.504 5.846-.353 5.846.202 0 .555-4.474 5.861-4.466 6.728.008.866 5.189 5.39 4.73 6.055-.46.664-5.982.69-6.241.47-.26-.22-2.34-3.422-3.416-3.229-1.075.194-.337 3.179-.657 3.566s-2.15.303-3.612.067C5.278 14.303.614 2.43 1.026 1.807c.41-.622 5.172-.303 5.648.067s2.348 7.333 4.467 6.728c.566-.278.328-4.978.328-4.978"/>
</svg>
