<svg xmlns="http://www.w3.org/2000/svg" width="29" height="27" viewBox="0 0 29 27">
    <path fill="none" fill-rule="evenodd" stroke="#6C4527" stroke-linecap="round" stroke-linejoin="round" d="M9.389 9.55c1.4-.726-2.555-8.276-3.297-8.506-.742-.231-2.363.48-3.429 1.516-2.813 2.731-1.306 7.994-.857 9.56 2 6.987 8.825 11.659 14.704 13.122 2.17.54 5.673 1.412 8.505-.594 1.735-1.228 3.083-3.478 2.836-4.088-.248-.61-5.572-3.577-6.594-3.626-1.022-.05-2.373 3.346-3.429 3.429-1.055.082-3.206-1.288-5.406-2.902-2.79-2.045-5.06-4.681-4.88-5.868"/>
</svg>
